<?xml version="1.0" encoding="UTF-8" standalone="no"?>
<svg width="11px" height="8px" viewBox="0 0 11 8" version="1.1" xmlns="http://www.w3.org/2000/svg" xmlns:xlink="http://www.w3.org/1999/xlink" xmlns:sketch="http://www.bohemiancoding.com/sketch/ns">
    <!-- Generator: Sketch 3.4.1 (15681) - http://www.bohemiancoding.com/sketch -->
    <title>Check</title>
    <desc>Created with Sketch.</desc>
    <defs></defs>
    <g id="Toolkit/Grey-Background" stroke="none" stroke-width="1" fill="none" fill-rule="evenodd" sketch:type="MSPage">
        <g id="Smaller-Items" sketch:type="MSArtboardGroup" transform="translate(-674.000000, -318.000000)" fill="#FFFFFF">
            <g sketch:type="MSLayerGroup" transform="translate(190.000000, 261.000000)" id="Check-Boxes">
                <g transform="translate(480.000000, 0.000000)" sketch:type="MSShapeGroup">
                    <g id="Selected" transform="translate(0.000000, 40.000000)">
                        <path d="M12.7701802,21.5033045 L13.4023073,22.0998705 C13.5153816,22.2069223 13.5181599,22.377733 13.4086972,22.4811115 L9.75725639,25.9240706 C9.64779372,26.0277114 9.4672081,26.0248252 9.35413372,25.9180358 L8.57567081,25.1828416 C8.46259643,25.0760522 8.45981819,24.9055039 8.56928085,24.801863 L11.2493834,22.2745907 L6.07969963,17.1857704 C5.97107043,17.0834415 5.97384867,16.9147299 6.08581176,16.8087276 L6.8564956,16.0811425 C6.96845868,15.9754026 7.14709953,15.9725164 7.25572873,16.0753701 L12.7701802,21.5033045 Z" id="Check" transform="translate(9.744495, 21.000000) rotate(-270.000000) translate(-9.744495, -21.000000) "></path>
                    </g>
                </g>
            </g>
        </g>
    </g>
</svg>